PathFileType	4	(X/Y/Z)	C:\Users\WrightLab\Desktop\Jo\P5V11.trc
DataRate	CameraRate	NumFrames	NumMarkers	Units	OrigDataRate	OrigDataStartFrame	OrigNumFrames
100.00	100.00	       10	19	mm	100.00	503	       804
Frame#	Time	Headset_Front			Headset_Back			Headset_Left			Headset_Right			Left_Shoulder			Right_Shoulder			Sternum			C7			Left Elbow			Right Elbow			Left Wrist			Right Wrist			Left ASIS			Right ASIS			S2			Left Knee			Right Knee			Left Ankle			Right Ankle			
		X1	Y1	Z1	X2	Y2	Z2	X3	Y3	Z3	X4	Y4	Z4	X5	Y5	Z5	X6	Y6	Z6	X7	Y7	Z7	X8	Y8	Z8	X9	Y9	Z9	X10	Y10	Z10	X11	Y11	Z11	X12	Y12	Z12	X13	Y13	Z13	X14	Y14	Z14	X15	Y15	Z15	X16	Y16	Z16	X17	Y17	Z17	X18	Y18	Z18	X19	Y19	Z19	

503	5.020	-553.77362	1563.22925	921.33282	-653.25391	1631.61609	829.39008							-346.95615	1491.36731	764.16986	-713.35815	1477.60242	577.71106	-599.43109	1335.78467	749.74500	-480.04831	1528.43384	562.65936	-256.51779	1197.28906	792.91718	-760.38593	1210.38062	444.92175	-296.04074	983.98755	911.24396	-829.70508	983.47217	544.76575	-508.71625	933.60077	828.41467	-724.18945	971.37628	657.44324	-458.23038	971.32031	530.06396	-448.44214	503.26074	749.80621	-778.68811	536.86084	686.36682	-269.87311	142.18684	585.71948	-822.43451	113.92441	682.40753	
504	5.030	-557.45154	1561.68909	926.54480	-529.79950	1772.26489	692.38470							-354.02710	1490.02698	768.58173	-721.88007	1476.33057	584.82025	-606.13910	1334.43652	755.86768	-488.47614	1526.60925	568.06683	-261.00781	1196.61682	793.99298	-770.60541	1208.93433	453.08298	-299.44611	982.38202	911.46552	-838.74353	982.70593	553.72156	-516.28674	932.18152	833.92505	-733.16406	970.15979	665.13660	-467.59012	969.39606	534.04669	-457.31592	501.94388	753.13037	-784.80334	534.66278	695.37976	-272.68533	144.85919	586.99011	-819.46869	112.34506	684.36609	
505	5.040	-561.46899	1560.84302	931.83960	-536.95306	1771.74866	697.88763							-359.15955	1486.87427	769.08728	-730.01489	1475.10974	591.88623	-613.15601	1333.48572	762.01721	-497.00211	1525.35962	571.53412	-265.95682	1194.93762	794.73987	-781.29596	1207.70044	461.03409	-303.21933	980.30109	912.22406	-847.88733	981.68646	563.32928	-523.42194	930.85089	839.83118	-742.50818	969.51868	673.60358	-475.55695	968.12567	538.51984	-467.10132	499.79187	755.80908	-791.15997	532.01965	704.03711	-275.34296	149.25134	588.18793	-817.57764	112.60299	685.41016	
506	5.050	-564.45758	1559.47205	937.27368	-668.83911	1629.32910	849.79871							-364.77054	1486.81665	773.25238	-738.21539	1474.72778	599.08215	-619.67639	1333.18762	767.76208	-505.47083	1524.77307	576.96893	-270.72668	1193.59705	794.98059	-792.09784	1206.36511	468.91193	-306.27393	978.19806	912.40466	-856.82983	980.45959	573.40088	-530.82593	929.73608	845.62939	-751.26349	968.89056	681.29803	-484.43362	967.29517	542.53131	-474.79709	500.16406	765.51099	-796.80603	530.42981	712.17963	-279.60251	153.55481	591.18317	-817.34479	113.15604	686.98389	
507	5.060	-568.35443	1559.10815	942.79242	-549.92596	1772.20935	710.21826							-370.59402	1486.04663	778.00836	-745.91296	1474.04150	605.95239	-625.02380	1333.18079	773.28076	-514.21423	1525.14746	581.13312	-277.09723	1193.21729	795.16919	-802.79626	1205.66907	476.30457	-308.89130	976.71228	913.28076	-866.09509	979.58032	583.76349	-537.45538	929.26239	850.53186	-759.84918	968.67084	689.26819	-493.23389	967.16547	547.99506	-483.89136	498.67276	771.69006	-803.18976	529.53662	719.92316	-285.18750	158.90964	593.94324	-818.12488	114.05767	689.33478	
508	5.070	-571.85950	1558.53076	947.96997	-555.46869	1772.13074	716.29846							-373.56696	1490.58093	779.30756	-754.32306	1474.59924	613.27368	-631.21851	1333.85852	779.18652	-522.64673	1526.06726	585.17206	-281.83844	1193.79785	796.31244	-813.15015	1205.64600	487.02515	-313.49966	976.92603	912.43011	-874.50446	978.94104	593.68158	-544.37762	929.27710	855.87396	-768.18475	969.15265	697.33954	-501.31210	967.86584	551.13391	-493.43796	497.10693	779.47980	-809.26801	529.80597	727.35205	-291.42026	163.78998	597.00635	-818.28314	113.77415	690.96185	
509	5.080	-575.46423	1558.01526	953.07849	-562.15228	1773.38403	722.34808							-379.16147	1491.88806	786.91949	-762.92609	1475.67590	620.81128	-636.80487	1334.53137	784.75159	-531.10059	1526.51685	590.63580	-287.93854	1194.05151	796.95990	-823.03638	1205.73401	496.51053	-316.48474	975.02344	912.38654	-882.90448	978.89435	603.89575	-550.47046	930.32385	860.20471	-776.30316	970.45856	705.36707	-509.69455	968.64429	555.45319	-503.75739	496.79501	788.80194	-815.54248	531.68335	734.08496	-298.20959	170.41818	601.65527	-818.87427	113.64496	691.34949	
510	5.090	-578.88940	1557.63147	958.11896	-568.80096	1773.81250	728.35632							-381.83356	1492.42163	793.90149	-771.11493	1476.62378	628.71796	-642.48840	1335.51538	790.83252	-539.41626	1527.06238	595.16742	-294.05865	1194.43591	797.12482	-833.04706	1206.21436	507.54865	-320.04111	974.97571	911.32233	-891.55396	979.19775	614.72791	-555.86719	931.40765	865.32001	-784.21265	972.03619	713.35089	-518.25763	969.20294	558.56219	-514.58582	496.93298	800.78485	-822.17035	534.80719	740.15704	-306.75211	176.44144	607.87689	-819.73602	113.76812	691.22076	
511	5.100	-582.98090	1557.51477	963.31012	-574.43695	1774.31628	733.96118							-386.93698	1492.57361	800.51398	-779.15051	1477.91663	637.01068	-648.77423	1336.75525	797.44867	-547.86334	1527.87170	599.12769	-300.37955	1194.61499	797.72949	-841.88696	1206.99744	519.27698	-323.97913	975.94965	911.05298	-899.60718	979.48285	625.60968	-560.26770	931.83618	869.54858	-792.17426	973.28894	721.94263	-526.42322	969.80945	562.05719	-524.12311	496.58624	813.08624	-827.31140	535.07990	744.44366	-315.77014	181.73424	615.25739	-820.46002	113.40035	691.71271	
512	5.110	-585.95465	1557.96460	968.37274	-579.67206	1775.04602	739.25378							-391.43912	1492.72351	807.03906	-787.44025	1479.56189	645.88947	-653.57245	1337.30286	803.51587	-556.33960	1528.28772	604.32965	-306.13742	1195.57239	797.91760	-850.52155	1207.88989	530.61237	-326.27084	975.92462	910.19788	-907.34039	980.03912	636.45258	-563.88110	933.09839	873.98212	-799.19696	974.67511	729.83820	-535.23505	970.94629	565.86932	-535.01508	494.90921	826.46112	-831.33917	534.72485	748.45435	-324.87814	188.19382	622.70660	-821.27252	112.99701	692.57349	
